# xmcd
#
# Track frame offsets: 
#        150
#        10374
#        19419
#        31476
#        41702
#        52424
#        64555
#        75069
#        87617
#        99220
#        112194
#        124887
#        134887
#        145477
#        157156
#        165892
#        175968
#        187298
#        196054
#        208722
#
# Disc length: 2933 seconds
#
# Revision: 4
# Processed by: cddbd v1.5.2PL0 Copyright (c) Steve Scherf et al.
# Submitted via: ExactAudioCopyFreeDBPlugin 1.0
#
DISCID=290b7314
DTITLE=Various Artist - Rhythm and Blues:  Original Masters [Membran Mu
DTITLE=sic Documents]
DYEAR=2005
DGENRE=Rhythm and Blues
TTITLE0=Frankie Lee Sims - She Likes to Boogie Real Slow
TTITLE1=Lightnin' Hopkins - Movin' Out
TTITLE2=The Cardinals - Choo Choo
TTITLE3=Mojo Watson - Look a There
TTITLE4=The Thrills - I Ain't Got the Money
TTITLE5=The 4 Gators - Wine O Wine
TTITLE6=Billy Miranda - Go Ahead
TTITLE7=Betty James - I'm a Little Mixed Up
TTITLE8=Joe Tex - You Upset My Home
TTITLE9=Sonny Knight - But Officer
TTITLE10=King Rhythm - Killer Diller
TTITLE11=Papa Lightfoot - Jumpin' with Jaris
TTITLE12=Crusher - I Got to Know
TTITLE13=Buddy Johnson - Walk the Chalk Line
TTITLE14=Gus Jenkins - Slow Down
TTITLE15=Mercy Baby - Pleadin'
TTITLE16=Charles Clark - Hidden Charms
TTITLE17=Sonny and Jaycee - You Keep on Doggin' Me
TTITLE18=Lightnin' Hopkins - I'm Wild About You
TTITLE19=Bobo Jenkins - Tell Me Who
EXTD=YEAR: 2005
EXTT0=
EXTT1=
EXTT2=
EXTT3=
EXTT4=
EXTT5=
EXTT6=
EXTT7=
EXTT8=
EXTT9=
EXTT10=
EXTT11=
EXTT12=
EXTT13=
EXTT14=
EXTT15=
EXTT16=
EXTT17=
EXTT18=
EXTT19=
PLAYORDER=
